# xmcd CD database file
#
# Track frame offsets:
#	150
#	22145
#	44741
#	63468
#	96765
#	332550
#
# Disc length: 4440 seconds
#
# Revision: 0
# Processed by: cddbd v1.5PL3 Copyright (c) Steve Scherf et al.
# Submitted via: CDex 1.50Beta7
#
DISCID=53115606
DTITLE=Cry and Feel it - さくらさらり
DYEAR=2004
DGENRE=Chorus
TTITLE0=さくらさらり
TTITLE1=君がおしえてくれたこと 〜POWER OF THE DREAM〜
TTITLE2=LA LA (MEANS I LOVE YOU)
TTITLE3=さくらさらり 〜オリジナル･カラオケ〜
TTITLE4=レーベルゲート
TTITLE5=レーベルゲート
EXTD=YEAR: 2004
EXTT0=
EXTT1=
EXTT2=
EXTT3=
EXTT4=
EXTT5=
PLAYORDER=
